<?xml version="1.0" encoding="UTF-8" standalone="no"?>
<svg
   xmlns:dc="http://purl.org/dc/elements/1.1/"
   xmlns:cc="http://creativecommons.org/ns#"
   xmlns:rdf="http://www.w3.org/1999/02/22-rdf-syntax-ns#"
   xmlns:svg="http://www.w3.org/2000/svg"
   xmlns="http://www.w3.org/2000/svg"
   xmlns:sodipodi="http://sodipodi.sourceforge.net/DTD/sodipodi-0.dtd"
   xmlns:inkscape="http://www.inkscape.org/namespaces/inkscape"
   version="1.1"
   id="svg2"
   viewBox="0 0 730.29541 783.08788"
   height="178mm"
   width="166mm"
   sodipodi:docname="A320_cargo.svg"
   inkscape:version="0.92.0 r15299">
  <sodipodi:namedview
     pagecolor="#ffffff"
     bordercolor="#666666"
     borderopacity="1"
     objecttolerance="10"
     gridtolerance="10"
     guidetolerance="10"
     inkscape:pageopacity="0"
     inkscape:pageshadow="2"
     inkscape:window-width="1920"
     inkscape:window-height="1027"
     id="namedview3776"
     showgrid="false"
     inkscape:zoom="1"
     inkscape:cx="266.57858"
     inkscape:cy="308.83806"
     inkscape:window-x="-8"
     inkscape:window-y="-8"
     inkscape:window-maximized="1"
     inkscape:current-layer="layer4"
     scale-x="1.164"
     inkscape:snap-bbox="true"
     inkscape:bbox-nodes="true"
     showguides="true"
     inkscape:guide-bbox="true">
    <inkscape:grid
       type="xygrid"
       id="grid5524" />
    <sodipodi:guide
       position="0,0"
       orientation="0,627.40157"
       id="guide4529"
       inkscape:locked="false" />
    <sodipodi:guide
       position="730.29543,0"
       orientation="-672.75591,0"
       id="guide4531"
       inkscape:locked="false" />
    <sodipodi:guide
       position="0,783.08787"
       orientation="672.75591,0"
       id="guide4535"
       inkscape:locked="false" />
  </sodipodi:namedview>
  <defs
     id="defs4" />
  <metadata
     id="metadata7">
    <rdf:RDF>
      <cc:Work
         rdf:about="">
        <dc:format>image/svg+xml</dc:format>
        <dc:type
           rdf:resource="http://purl.org/dc/dcmitype/StillImage" />
        <dc:title />
      </cc:Work>
    </rdf:RDF>
  </metadata>
  <g
     style="display:inline"
     id="layer4"
     transform="translate(-26.983646,-732.19059)">
    <path
       id="path4155"
       d="m 421.31113,1386.9504 c -6.54121,22.0932 100.11576,68.5657 100.0226,93.5172"
       style="display:inline;fill:none;fill-opacity:1;fill-rule:evenodd;stroke:#c4c4c4;stroke-width:1.6875;stroke-linecap:butt;stroke-linejoin:miter;stroke-miterlimit:4;stroke-dasharray:none;stroke-opacity:1"
       inkscape:connector-curvature="0"
       sodipodi:nodetypes="cc" />
    <path
       id="path4167-3"
       d="m 521.33373,1480.4676 -0.66172,11.2565 -111.42649,-22.4323"
       style="display:inline;fill:none;fill-opacity:1;fill-rule:evenodd;stroke:#c4c4c4;stroke-width:1.6875;stroke-linecap:butt;stroke-linejoin:miter;stroke-miterlimit:4;stroke-dasharray:none;stroke-opacity:1"
       inkscape:connector-curvature="0"
       sodipodi:nodetypes="ccc" />
    <path
       id="path4171-0"
       d="m 412.81566,1445.8081 108.53452,39.1254"
       style="display:inline;fill:none;fill-opacity:1;fill-rule:evenodd;stroke:#c4c4c4;stroke-width:1.6875;stroke-linecap:butt;stroke-linejoin:miter;stroke-miterlimit:4;stroke-dasharray:none;stroke-opacity:1"
       inkscape:connector-curvature="0" />
    <path
       id="path4155-7"
       d="m 363.66772,1388.078 c 3.93945,22.4347 -98.76872,69.3096 -98.42268,93.5325"
       style="display:inline;fill:none;fill-opacity:1;fill-rule:evenodd;stroke:#c4c4c4;stroke-width:1.6875;stroke-linecap:butt;stroke-linejoin:miter;stroke-miterlimit:4;stroke-dasharray:none;stroke-opacity:1"
       inkscape:connector-curvature="0"
       sodipodi:nodetypes="cc" />
    <path
       id="path4163-7"
       d="m 381.12297,1494.4007 c -10.0683,-58.7558 -25.68063,-153.3196 -25.84932,-179.2944 L 352.3069,858.30585"
       style="display:inline;fill:none;fill-opacity:1;fill-rule:evenodd;stroke:#c4c4c4;stroke-width:1.6875;stroke-linecap:butt;stroke-linejoin:miter;stroke-miterlimit:4;stroke-dasharray:none;stroke-opacity:1"
       inkscape:connector-curvature="0"
       sodipodi:nodetypes="csc" />
    <path
       id="path4167-3-2"
       d="m 265.24504,1481.6105 0.81757,12.0827 111.09585,-24.8109"
       style="display:inline;fill:none;fill-opacity:1;fill-rule:evenodd;stroke:#c4c4c4;stroke-width:1.6875;stroke-linecap:butt;stroke-linejoin:miter;stroke-miterlimit:4;stroke-dasharray:none;stroke-opacity:1"
       inkscape:connector-curvature="0"
       sodipodi:nodetypes="ccc" />
    <path
       id="path4171-0-7"
       d="m 373.28845,1446.3552 -108.00201,40.5721"
       style="display:inline;fill:none;fill-opacity:1;fill-rule:evenodd;stroke:#c4c4c4;stroke-width:1.6875;stroke-linecap:butt;stroke-linejoin:miter;stroke-miterlimit:4;stroke-dasharray:none;stroke-opacity:1"
       inkscape:connector-curvature="0" />
    <path
       id="path4177-1-1"
       d="m 393.62892,1488.2606 c 6.09457,-53.9906 10.70686,-114.043 -0.47485,-177.0112 -10.87726,62.9319 -5.02591,122.4254 0.47485,177.0112 z"
       style="display:inline;fill:none;fill-opacity:1;fill-rule:evenodd;stroke:#c4c4c4;stroke-width:1.6875;stroke-linecap:butt;stroke-linejoin:miter;stroke-miterlimit:4;stroke-dasharray:none;stroke-opacity:1"
       inkscape:connector-curvature="0"
       sodipodi:nodetypes="ccc" />
    <path
       id="path4181-3-3"
       d="m 381.1192,1493.8357 12.24996,-0.2954 12.25092,-0.1509 c -1.23732,5.6614 -4.80538,9.6826 -11.89726,9.7321 -7.68887,0.063 -11.35708,-4 -12.60362,-9.2854 z"
       style="display:inline;fill:none;fill-opacity:1;fill-rule:evenodd;stroke:#c4c4c4;stroke-width:1.6875;stroke-linecap:butt;stroke-linejoin:miter;stroke-miterlimit:4;stroke-dasharray:none;stroke-opacity:1"
       inkscape:connector-curvature="0"
       sodipodi:nodetypes="cccccc" />
    <path
       id="path4352"
       d="m 358.00123,1342.4935 9.1741,-0.061 0.56904,16.5104 -8.2567,0.055"
       style="display:inline;fill:none;fill-opacity:1;fill-rule:evenodd;stroke:#c4c4c4;stroke-width:1.6875;stroke-linecap:butt;stroke-linejoin:miter;stroke-miterlimit:4;stroke-dasharray:none;stroke-opacity:1"
       inkscape:connector-curvature="0"
       sodipodi:nodetypes="cccc" />
    <path
       id="path4356"
       d="m 431.21643,859.61351 -0.89032,453.93239 c -0.037,18.8518 -16.08202,121.3386 -24.70226,180.4081"
       style="display:inline;fill:none;fill-opacity:1;fill-rule:evenodd;stroke:#c4c4c4;stroke-width:1.6875;stroke-linecap:butt;stroke-linejoin:miter;stroke-miterlimit:4;stroke-dasharray:none;stroke-opacity:1;opacity:1"
       inkscape:connector-curvature="0"
       sodipodi:nodetypes="csc" />
    <path
       id="path4396"
       d="m 430.74651,1132.5585 86.23354,-1.0349 210.54373,66.9434 5.32376,5.0917 0.75586,12.2993 3.2232,1.8133 -0.25132,-37.6138 c -0.97431,-5.9228 -4.49653,-11.3184 -11.5749,-15.978 L 430.37463,1008.2463"
       style="display:inline;fill:none;fill-opacity:1;fill-rule:evenodd;stroke:#c4c4c4;stroke-width:1.6875;stroke-linecap:butt;stroke-linejoin:miter;stroke-miterlimit:4;stroke-dasharray:none;stroke-opacity:1"
       inkscape:connector-curvature="0"
       sodipodi:nodetypes="ccccccccc" />
    <path
       id="path4451"
       d="m 485.32938,1131.7351 c 0.16962,8.9393 5.15916,16.9384 5.15916,16.9384 0,0 4.47821,-7.0924 4.01801,-16.541"
       style="display:inline;fill:none;fill-opacity:1;fill-rule:evenodd;stroke:#c4c4c4;stroke-width:1.6875;stroke-linecap:butt;stroke-linejoin:miter;stroke-miterlimit:4;stroke-dasharray:none;stroke-opacity:1"
       inkscape:connector-curvature="0" />
    <path
       id="path4453"
       d="m 506.88853,1131.591 2.84725,14.2015 3.57157,-14.7031"
       style="display:inline;fill:none;fill-opacity:1;fill-rule:evenodd;stroke:#c4c4c4;stroke-width:1.6875;stroke-linecap:butt;stroke-linejoin:miter;stroke-miterlimit:4;stroke-dasharray:none;stroke-opacity:1"
       inkscape:connector-curvature="0" />
    <path
       id="path4455"
       d="m 555.13841,1144.1129 c -0.82322,12.2001 2.02659,13.1306 3.3366,18.7856 2.65632,-5.3234 3.40428,-9.5276 2.86512,-17.4508"
       style="display:inline;fill:none;fill-opacity:1;fill-rule:evenodd;stroke:#c4c4c4;stroke-width:1.6875;stroke-linecap:butt;stroke-linejoin:miter;stroke-miterlimit:4;stroke-dasharray:none;stroke-opacity:1"
       inkscape:connector-curvature="0" />
    <path
       id="path4457"
       d="m 628.69065,1167.4753 c -2.21981,13.0242 2.5848,14.5799 4.71883,19.6936 2.59248,-4.7917 4.17061,-10.25 3.09448,-17.4522"
       style="display:inline;fill:none;fill-opacity:1;fill-rule:evenodd;stroke:#c4c4c4;stroke-width:1.6875;stroke-linecap:butt;stroke-linejoin:miter;stroke-miterlimit:4;stroke-dasharray:none;stroke-opacity:1"
       inkscape:connector-curvature="0" />
    <path
       id="path4459"
       d="m 512.54316,1051.0469 -0.60019,-55.50187 c -0.14846,-3.42448 -2.34644,-4.30382 -4.61618,-4.32705 -2.23133,0.0709 -4.61803,0.72417 -4.55946,4.15905 l 0.3448,51.60437"
       style="display:inline;fill:none;fill-opacity:1;fill-rule:evenodd;stroke:#c4c4c4;stroke-width:1.6875;stroke-linecap:butt;stroke-linejoin:miter;stroke-miterlimit:4;stroke-dasharray:none;stroke-opacity:1"
       inkscape:connector-curvature="0"
       sodipodi:nodetypes="ccccc" />
    <path
       id="path4461"
       d="m 488.1429,1037.9069 c -0.96764,-19.4445 -4.09139,-29.4426 0.7422,-60.55681 5.38811,-3.42748 27.92279,-3.40054 39.21932,-0.26205 4.18281,28.59816 0.63222,41.98456 0.41375,61.92526 -0.36318,4.0746 -2.71763,3.1872 -6.38815,5.0887 -3.91012,1.8795 -0.28494,9.1358 -1.30411,10.7887"
       style="display:inline;fill:none;fill-opacity:1;fill-rule:evenodd;stroke:#c4c4c4;stroke-width:1.6875;stroke-linecap:butt;stroke-linejoin:miter;stroke-miterlimit:4;stroke-dasharray:none;stroke-opacity:1"
       inkscape:connector-curvature="0" />
    <path
       id="path4396-6"
       d="m 354.39155,1133.0946 -86.23967,0.1175 -209.630398,69.7508 -5.44145,5.5411 -0.405241,11.9295 -3.198679,1.8563 -0.25132,-37.6138 c 0.895082,-5.9354 4.344888,-11.3776 11.360362,-16.1314 L 353.10227,1008.7884"
       style="display:inline;fill:none;fill-opacity:1;fill-rule:evenodd;stroke:#c4c4c4;stroke-width:1.6875;stroke-linecap:butt;stroke-linejoin:miter;stroke-miterlimit:4;stroke-dasharray:none;stroke-opacity:1"
       inkscape:connector-curvature="0"
       sodipodi:nodetypes="ccccccccc" />
    <path
       id="path4451-1"
       d="m 299.80255,1133.0006 c -0.0501,8.9407 -4.93235,17.0057 -4.93235,17.0057 0,0 -4.57259,-7.0319 -4.23869,-16.4857"
       style="display:inline;fill:none;fill-opacity:1;fill-rule:evenodd;stroke:#c4c4c4;stroke-width:1.6875;stroke-linecap:butt;stroke-linejoin:miter;stroke-miterlimit:4;stroke-dasharray:none;stroke-opacity:1"
       inkscape:connector-curvature="0" />
    <path
       id="path4453-3"
       d="m 278.2434,1133.1447 -2.65722,14.2381 -3.76773,-14.654"
       style="display:inline;fill:none;fill-opacity:1;fill-rule:evenodd;stroke:#c4c4c4;stroke-width:1.6875;stroke-linecap:butt;stroke-linejoin:miter;stroke-miterlimit:4;stroke-dasharray:none;stroke-opacity:1"
       inkscape:connector-curvature="0" />
    <path
       id="path4455-0"
       d="m 230.16516,1146.3102 c 0.98617,12.188 -1.85095,13.1564 -3.08528,18.8283 -2.72722,-5.2873 -3.53129,-9.4812 -3.09805,-17.4109"
       style="display:inline;fill:none;fill-opacity:1;fill-rule:evenodd;stroke:#c4c4c4;stroke-width:1.6875;stroke-linecap:butt;stroke-linejoin:miter;stroke-miterlimit:4;stroke-dasharray:none;stroke-opacity:1"
       inkscape:connector-curvature="0" />
    <path
       id="path4457-6"
       d="m 156.93167,1170.6532 c 2.39365,12.9934 -2.38975,14.6131 -4.45526,19.755 -2.65628,-4.7567 -4.3072,-10.1933 -3.3274,-17.4093"
       style="display:inline;fill:none;fill-opacity:1;fill-rule:evenodd;stroke:#c4c4c4;stroke-width:1.6875;stroke-linecap:butt;stroke-linejoin:miter;stroke-miterlimit:4;stroke-dasharray:none;stroke-opacity:1"
       inkscape:connector-curvature="0" />
    <path
       id="path4568"
       d="m 352.17593,858.82109 c 0.49048,-26.92117 3.67146,-62.53021 19.16036,-89.64536 0,0 10.53764,-16.81108 20.67571,-16.8652 8.0667,-0.0431 16.85948,9.66158 21.0331,16.67538 17.95964,30.18139 16.95984,62.88 18.36626,91.36328"
       style="display:inline;fill:none;fill-opacity:1;fill-rule:evenodd;stroke:#c4c4c4;stroke-width:1.6875;stroke-linecap:butt;stroke-linejoin:miter;stroke-miterlimit:4;stroke-dasharray:none;stroke-opacity:1"
       inkscape:connector-curvature="0"
       sodipodi:nodetypes="ccssc" />
    <path
       id="path4572"
       d="m 414.71205,771.84355 -45.27457,0.52679"
       style="display:inline;fill:none;fill-opacity:1;fill-rule:evenodd;stroke:#c4c4c4;stroke-width:1.6875;stroke-linecap:butt;stroke-linejoin:miter;stroke-miterlimit:4;stroke-dasharray:none;stroke-opacity:1"
       inkscape:connector-curvature="0"
       sodipodi:nodetypes="cc" />
    <path
       id="path4574"
       d="m 353.36355,842.54126 9.08408,0.26367 0.77007,18.15947 -10.69934,0.72023"
       style="display:inline;fill:none;fill-opacity:1;fill-rule:evenodd;stroke:#c4c4c4;stroke-width:1.6875;stroke-linecap:butt;stroke-linejoin:miter;stroke-miterlimit:4;stroke-dasharray:none;stroke-opacity:1"
       inkscape:connector-curvature="0" />
    <path
       id="path4576"
       d="m 431.32546,859.53623 -9.40408,0.3872 -1.08793,-17.18425 9.40626,-0.0628"
       style="display:inline;fill:none;fill-opacity:1;fill-rule:evenodd;stroke:#c4c4c4;stroke-width:1.6875;stroke-linecap:butt;stroke-linejoin:miter;stroke-miterlimit:4;stroke-dasharray:none;stroke-opacity:1"
       inkscape:connector-curvature="0" />
    <path
       id="path4580"
       d="m 362.60077,817.17882 6.8136,0.27884 0.57935,-10.38365 -7.46013,0.0498 z"
       style="display:inline;fill:none;fill-opacity:1;fill-rule:evenodd;stroke:#c4c4c4;stroke-width:1.6875;stroke-linecap:butt;stroke-linejoin:miter;stroke-miterlimit:4;stroke-dasharray:none;stroke-opacity:1"
       inkscape:connector-curvature="0" />
    <path
       id="path4582"
       d="m 363.48931,804.52253 7.78232,-0.37637 4.81113,-8.14135 -6.8461,-5.14414 z"
       style="display:inline;fill:none;fill-opacity:1;fill-rule:evenodd;stroke:#c4c4c4;stroke-width:1.6875;stroke-linecap:butt;stroke-linejoin:miter;stroke-miterlimit:4;stroke-dasharray:none;stroke-opacity:1"
       inkscape:connector-curvature="0" />
    <path
       id="path4584"
       d="m 371.48763,787.92631 5.54218,4.17976 12.59562,-8.19336 0.26367,-9.08408 z"
       style="display:inline;fill:none;fill-opacity:1;fill-rule:evenodd;stroke:#c4c4c4;stroke-width:1.6875;stroke-linecap:butt;stroke-linejoin:miter;stroke-miterlimit:4;stroke-dasharray:none;stroke-opacity:1"
       inkscape:connector-curvature="0" />
    <path
       id="path4580-8"
       d="m 422.13792,816.85074 -6.80926,0.36986 -0.71806,-10.37498 7.46013,-0.0499 z"
       style="display:inline;fill:none;fill-opacity:1;fill-rule:evenodd;stroke:#c4c4c4;stroke-width:1.6875;stroke-linecap:butt;stroke-linejoin:miter;stroke-miterlimit:4;stroke-dasharray:none;stroke-opacity:1"
       inkscape:connector-curvature="0" />
    <path
       id="path4582-6"
       d="m 421.08034,804.20745 -7.78665,-0.27235 -4.9195,-8.07633 6.77676,-5.23516 z"
       style="display:inline;fill:none;fill-opacity:1;fill-rule:evenodd;stroke:#c4c4c4;stroke-width:1.6875;stroke-linecap:butt;stroke-linejoin:miter;stroke-miterlimit:4;stroke-dasharray:none;stroke-opacity:1"
       inkscape:connector-curvature="0" />
    <path
       id="path4584-7"
       d="m 412.86096,787.71959 -5.48583,4.25344 -12.70398,-8.02432 -0.38503,-9.07975 z"
       style="display:inline;fill:none;fill-opacity:1;fill-rule:evenodd;stroke:#c4c4c4;stroke-width:1.6875;stroke-linecap:butt;stroke-linejoin:miter;stroke-miterlimit:4;stroke-dasharray:none;stroke-opacity:1"
       inkscape:connector-curvature="0" />
    <path
       id="path4459-8"
       d="m 271.96535,1052.7037 -0.1415,-55.50489 c 0.10269,-3.42626 2.28872,-4.33489 4.55794,-4.38835 2.23208,0.0411 4.62731,0.6624 4.61463,4.09766 l 0.3448,51.60438"
       style="display:inline;fill:none;fill-opacity:1;fill-rule:evenodd;stroke:#c4c4c4;stroke-width:1.6875;stroke-linecap:butt;stroke-linejoin:miter;stroke-miterlimit:4;stroke-dasharray:none;stroke-opacity:1"
       inkscape:connector-curvature="0"
       sodipodi:nodetypes="ccccc" />
    <path
       id="path4461-4"
       d="m 296.18786,1039.2388 c 0.70773,-19.4557 3.69759,-29.4947 -1.55133,-60.54152 -5.43343,-3.35518 -27.96574,-3.02712 -39.21932,0.26204 -3.8003,28.65158 -0.0712,41.98918 0.41376,61.92518 0.41759,4.0694 2.75998,3.1507 6.45558,5.0029 3.93489,1.8272 0.40699,9.1313 1.44816,10.7704"
       style="display:inline;fill:none;fill-opacity:1;fill-rule:evenodd;stroke:#c4c4c4;stroke-width:1.6875;stroke-linecap:butt;stroke-linejoin:miter;stroke-miterlimit:4;stroke-dasharray:none;stroke-opacity:1"
       inkscape:connector-curvature="0" />
    <path
       id="path4352-1"
       d="m 426.8904,1342.1823 -9.17411,0.061 -0.34836,16.5165 8.25669,-0.055"
       style="display:inline;fill:none;fill-opacity:1;fill-rule:evenodd;stroke:#c4c4c4;stroke-width:1.6875;stroke-linecap:butt;stroke-linejoin:miter;stroke-miterlimit:4;stroke-dasharray:none;stroke-opacity:1"
       inkscape:connector-curvature="0"
       sodipodi:nodetypes="cccc" />
    <path
       style="fill:none;stroke:#c4c4c4;stroke-width:1.6875px;stroke-linecap:butt;stroke-linejoin:miter;stroke-opacity:1"
       d="m 356.68665,1058.6995 h 71.1495 l 0.0866,143.8115 H 357.3443 Z"
       id="path4527"
       inkscape:connector-curvature="0"
       sodipodi:nodetypes="ccccc" />
    <path
       style="fill:none;stroke:#c4c4c4;stroke-width:1.6875px;stroke-linecap:butt;stroke-linejoin:miter;stroke-opacity:1"
       d="m 357.34429,1202.511 0.61731,49.4125 h 69.34384 l 0.6173,-49.4125"
       id="path4555"
       inkscape:connector-curvature="0"
       sodipodi:nodetypes="cccc" />
    <path
       style="fill:none;stroke:#c4c4c4;stroke-width:1.6875px;stroke-linecap:butt;stroke-linejoin:miter;stroke-opacity:1"
       d="m 357.9616,1251.9235 0.20576,49.3562 h 69.13808 v -49.3562"
       id="path4557"
       inkscape:connector-curvature="0"
       sodipodi:nodetypes="cccc" />
    <path
       style="fill:none;stroke:#c4c4c4;stroke-width:1.16400003px;stroke-linecap:butt;stroke-linejoin:miter;stroke-opacity:1"
       d="m 355.81365,888.92045 0,82.30723 h 72.0225 v -82.30723 z"
       id="path4561"
       inkscape:connector-curvature="0"
       sodipodi:nodetypes="ccccc" />
  </g>
</svg>
